<svg width="23" height="24" viewBox="0 0 23 24" fill="none" xmlns="http://www.w3.org/2000/svg">
<path d="M18.3123 2.75597C16.1377 1.15084 13.4667 0.363803 10.7691 0.53325C8.07149 0.702697 5.52 1.81778 3.56326 3.68242C1.60652 5.54707 0.369814 8.04188 0.0706108 10.7282C-0.228592 13.4145 0.428861 16.1203 1.92737 18.3698C3.42587 20.6193 5.66948 22.2684 8.26368 23.0273C10.8579 23.7861 13.6366 23.6061 16.1111 22.5188C18.5857 21.4315 20.5977 19.5066 21.7934 17.0825C22.9891 14.6585 23.2919 11.8904 22.6485 9.26522L18.9288 10.1768C19.3577 11.927 19.1559 13.7723 18.3587 15.3883C17.5616 17.0044 16.2203 18.2877 14.5705 19.0125C12.9208 19.7374 11.0684 19.8574 9.33891 19.3515C7.60944 18.8456 6.1137 17.7462 5.1147 16.2465C4.11569 14.7468 3.67739 12.943 3.87686 11.1521C4.07633 9.36126 4.9008 7.69805 6.20529 6.45495C7.50979 5.21186 9.21078 4.46847 11.0092 4.3555C12.8076 4.24254 14.5882 4.76723 16.038 5.83732L18.3123 2.75597Z" fill="black"/>
<circle cx="11.234" cy="11.7447" r="3.57447" fill="#EF4444"/>
</svg>
